<svg width="32" height="32" viewBox="0 0 32 32" fill="none" xmlns="http://www.w3.org/2000/svg">
<path d="M27 4.9595H21.0255V3.0415C21.0255 1.387 19.68 0.0415001 18.0255 0.0415001H14.037C12.3825 0.0415001 11.037 1.387 11.037 3.0415V4.9595H5C3.8955 4.9595 3 5.855 3 6.9595V29.9585C3 31.063 3.8955 31.9585 5 31.9585H27C28.1045 31.9585 29 31.063 29 29.9585V6.9595C29 5.855 28.1045 4.9595 27 4.9595ZM13.037 3.0415C13.037 2.4895 13.485 2.0415 14.037 2.0415H18.0255C18.5775 2.0415 19.0255 2.4895 19.0255 3.0415V4.9595H13.037V3.0415ZM27 29.9585H5.00003V6.9595H11.037V9.017C11.037 9.017 11.0105 10.016 12.0311 10.016C13.1561 10.016 13.0371 9.017 13.0371 9.017V6.9595H19.0256V9.017C19.0256 9.017 18.9591 10.021 20.0216 10.021C21.0216 10.021 21.0256 9.017 21.0256 9.017V6.9595H27.0001L27 29.9585Z" fill="black"/>
</svg>
