<svg width="31" height="25" viewBox="0 0 31 25" fill="none" xmlns="http://www.w3.org/2000/svg">
<path d="M3.79687 24.4688C3.30469 24.4688 2.60156 24.1523 1.6875 23.5195C0.773435 22.8867 0.210935 22.2891 -2.64727e-06 21.7266C2.39062 20.3203 4.21875 18.6328 5.48437 16.6641C6.75 14.7656 7.38281 13.2891 7.38281 12.2344C7.38281 11.3906 7.03125 10.5469 6.32812 9.70313C5.55468 8.85938 4.8164 8.01563 4.11328 7.17188C3.33984 6.32813 2.95312 5.48438 2.95312 4.64063C2.95312 3.375 3.6914 2.28516 5.16796 1.3711C6.57421 0.457034 8.15625 2.14527e-06 9.91406 1.9916e-06C11.5312 1.85022e-06 12.832 0.38672 13.8164 1.16016C14.8711 2.77735 15.3984 5.23828 15.3984 8.54297C15.3984 10.3711 15.0469 12.1641 14.3437 13.9219C13.5703 15.75 12.6562 17.2617 11.6016 18.457C10.125 20.1445 8.57812 21.5508 6.96093 22.6758C5.34375 23.8711 4.28906 24.4688 3.79687 24.4688ZM19.4062 24.4688C18.9141 24.4688 18.2109 24.1523 17.2969 23.5195C16.3828 22.8867 15.8203 22.2891 15.6094 21.7266C18 20.3203 19.8281 18.6328 21.0937 16.6641C22.3594 14.7656 22.9922 13.2891 22.9922 12.2344C22.9922 11.3906 22.6406 10.5469 21.9375 9.70313C21.1641 8.85938 20.4258 8.01563 19.7227 7.17188C18.9492 6.32813 18.5625 5.48438 18.5625 4.64063C18.5625 3.375 19.3008 2.28516 20.7773 1.37109C22.1836 0.457032 23.7656 7.80658e-07 25.5234 6.26985e-07C27.1406 4.85606e-07 28.4414 0.386719 29.4258 1.16016C30.4805 2.77734 31.0078 5.23828 31.0078 8.54297C31.0078 10.3711 30.6562 12.1641 29.9531 13.9219C29.1797 15.75 28.2656 17.2617 27.2109 18.457C25.7344 20.1445 24.1875 21.5508 22.5703 22.6758C20.9531 23.8711 19.8984 24.4688 19.4062 24.4688Z" fill="#737373"/>
</svg>
