<svg width="31" height="25" viewBox="0 0 31 25" fill="none" xmlns="http://www.w3.org/2000/svg">
<path d="M27.2109 0C27.7031 0 28.4062 0.316406 29.3203 0.949219C30.2344 1.58203 30.7969 2.17969 31.0078 2.74219C28.6172 4.14844 26.7891 5.83594 25.5234 7.80469C24.2578 9.70312 23.625 11.1797 23.625 12.2344C23.625 13.0781 23.9766 13.9219 24.6797 14.7656C25.4531 15.6094 26.1914 16.4531 26.8945 17.2969C27.668 18.1406 28.0547 18.9844 28.0547 19.8281C28.0547 21.0938 27.3164 22.1836 25.8398 23.0977C24.4336 24.0117 22.8516 24.4688 21.0938 24.4688C19.4766 24.4688 18.1758 24.082 17.1914 23.3086C16.1367 21.6914 15.6094 19.2305 15.6094 15.9258C15.6094 14.0977 15.9609 12.3047 16.6641 10.5469C17.4375 8.71875 18.3516 7.20703 19.4062 6.01172C20.8828 4.32422 22.4297 2.91797 24.0469 1.79297C25.6641 0.597656 26.7187 0 27.2109 0ZM11.6016 0C12.0937 0 12.7969 0.316406 13.7109 0.949219C14.625 1.58203 15.1875 2.17969 15.3984 2.74219C13.0078 4.14844 11.1797 5.83594 9.91406 7.80469C8.64844 9.70312 8.01562 11.1797 8.01562 12.2344C8.01562 13.0781 8.36719 13.9219 9.07031 14.7656C9.84375 15.6094 10.582 16.4531 11.2852 17.2969C12.0586 18.1406 12.4453 18.9844 12.4453 19.8281C12.4453 21.0938 11.707 22.1836 10.2305 23.0977C8.82422 24.0117 7.24219 24.4688 5.48438 24.4688C3.86719 24.4688 2.56641 24.082 1.58203 23.3086C0.527344 21.6914 0 19.2305 0 15.9258C0 14.0977 0.351562 12.3047 1.05469 10.5469C1.82812 8.71875 2.74219 7.20703 3.79688 6.01172C5.27344 4.32422 6.82031 2.91797 8.4375 1.79297C10.0547 0.597656 11.1094 0 11.6016 0Z" fill="#737373"/>
</svg>
